{"title":"13 2010 BRRip RC 720p x264 Feel-Free","uid":6054459,"size":1842472175,"categoryP":"video","categoryS":"hd___movies","magnet":"?xt=urn:btih:8d29bb67f3348710b7c5de8d4932e5e45d61010f&amp;dn=13+2010+BRRip+RC+720p+x264+Feel-Free&amp;tr=udp%3A%2F%2Ftracker.openbittorrent.com%3A80&amp;tr=udp%3A%2F%2Fopen.demonii.com%3A1337&amp;tr=udp%3A%2F%2Ftracker.coppersurfer.tk%3A6969&amp;tr=udp%3A%2F%2Fexodus.desync.com%3A6969","seeders":0,"leechers":1,"uploader":"neon","files":-1,"time":1292851800,"description":"Genre:Drama | Thriller\nLanguage:English\n &lt;a href=&quot; http://www.imdb.com/title/tt0798817/&quot; rel=&quot;nofollow&quot; target=&quot;_NEW&quot;&gt; http://www.imdb.com/title/tt0798817/&lt;/a&gt;\nSource:BluRay.DTS.x264.DNL\nSubtitles:Romana\n\n\nFormat : Matroska\nFile size : 1.71 GiB\nDuration : 1h 33mn\nOverall bit rate : 2 624 Kbps\n\n\nVideo\nFormat settings, CABAC : Yes\nFormat settings, ReFrames : 4 frames\nFormat settings, GOP : M=4, N=16\nCodec ID : V_MPEG4/ISO/AVC\nDuration : 1h 33mn\nBit rate : 2 188 Kbps\nNominal bit rate : 2 300 Kbps\nWidth : 1 280 pixels\nHeight : 544 pixels\nDisplay aspect ratio : 2.35:1\nFrame rate mode : Variable\nFrame rate : 25.000 fps\nColor space : YUV\nChroma subsampling : 4:2:0\nBit depth : 8 bits\nScan type : Progressive\nBits/(Pixel*Frame) : 0.126\nStream size : 1.43 GiB (83%)\nWriting library : x264 core 106 r1732 b20059a\n\n\nAudio\nID : 2\nFormat : AC-3\nFormat/Info : Audio Coding 3\nMode extension : CM (complete main)\nCodec ID : A_AC3\nDuration : 1h 33mn\nBit rate mode : Constant\nBit rate : 384 Kbps\nChannel(s) : 6 channels\nChannel positions : Front: L C R, Side: L R, LFE\nSampling rate : 48.0 KHz\nBit depth : 16 bits\nVideo delay : -1mn 5s\nStream size : 256 MiB (15%)\nLanguage : English\n\n\n\nPlot:\nA naive young man assumes a dead man's identity and finds himself embroiled in an underground world of power, violence, and chance where men gamble behind closed doors on the lives of other men.\n\n","torrent":{"xt":"urn:btih:8d29bb67f3348710b7c5de8d4932e5e45d61010f","amp;dn":"13+2010+BRRip+RC+720p+x264+Feel-Free","amp;tr":["udp%3A%2F%2Ftracker.openbittorrent.com%3A80","udp%3A%2F%2Fopen.demonii.com%3A1337","udp%3A%2F%2Ftracker.coppersurfer.tk%3A6969","udp%3A%2F%2Fexodus.desync.com%3A6969"],"infoHash":"8d29bb67f3348710b7c5de8d4932e5e45d61010f","infoHashBuffer":{"type":"Buffer","data":[141,41,187,103,243,52,135,16,183,197,222,141,73,50,229,228,93,97,1,15]},"announce":[],"urlList":[]}}